<svg viewBox="0 0 100 100" fill="none" xmlns="http://www.w3.org/2000/svg">
  <rect width="100" height="100" rx="24" fill="#0f172a"/>
  <defs>
    <linearGradient id="markGrad" x1="28" y1="20" x2="72" y2="80" gradientUnits="userSpaceOnUse">
      <stop stop-color="#818CF8"/>
      <stop offset="1" stop-color="#4F46E5"/>
    </linearGradient>
  </defs>
  <path d="M44 44 V40 C44 35.58 40.42 32 36 32 C31.58 32 28 35.58 28 40 V72 C28 76.42 31.58 80 36 80 C40.42 80 44 76.42 44 72 V56 H56 V60 C56 64.42 59.58 68 64 68 C68.42 68 72 64.42 72 60 V28 C72 23.58 68.42 20 64 20 C59.58 20 56 23.58 56 28 V44 H44 Z" fill="url(#markGrad)"/>
</svg>
